<svg version="1.2" xmlns="http://www.w3.org/2000/svg" viewBox="0 0 704 811" width="704" height="811">
	<title>red_person-svg</title>
	<defs>
		<clipPath clipPathUnits="userSpaceOnUse" id="cp1">
			<path d="m488 228h211.46v584h-211.46z"/>
		</clipPath>
		<clipPath clipPathUnits="userSpaceOnUse" id="cp2">
			<path d="m4.21 309h176.79v503h-176.79z"/>
		</clipPath>
	</defs>
	<style>
		.s0 { fill: #ff3131 } 
	</style>
	<g id="Clip-Path" clip-path="url(#cp1)">
		<g id="Layer">
			<path id="Layer" class="s0" d="m590.6 812q11.9-15.9 23.5-31.9l11.5-16q5.8-8.1 11.3-16.2c7.4-10.9 14.8-21.8 21.7-32.9 6.8-11.2 13.4-22.5 18.7-34.1 0.6-1.4 1.3-2.9 1.9-4.3 0.6-1.5 1.2-2.9 1.7-4.4 0.5-1.4 1-2.9 1.4-4.3l0.6-2.2 0.3-1 0.2-1 0.9-4.9c0.2-0.8 0.2-1.6 0.3-2.3l0.3-2.3c0.5-3 0.6-6.2 0.9-9.4 0.8-12.7 0.2-25.6-1-38.4-1.1-12.9-3.1-25.8-5.4-38.6-2.3-12.8-5.1-25.5-8.2-38.1-3.2-12.7-6.7-25.3-10.6-37.7-3.8-12.5-8.1-24.8-12.7-37-4.5-12.2-9.5-24.2-15.1-35.9-1.3-2.9-2.8-5.8-4.2-8.7l-2.3-4.2q-1.1-2.2-2.3-4.3l-2.3-4.1-2.5-4.1-0.9-1.5-0.1-0.1c-0.1-0.1 0.2 0.3 0 0l-0.1-0.2-1.4-2-0.7-1.1-0.7-0.8-1.3-1.6c-3.8-4.7-8.4-9.2-13.1-13.5-4.7-4.4-9.6-8.6-14.6-12.8-5.1-4.1-10.2-8.1-15.4-12.1q-7.8-6-15.8-11.7-15.9-11.6-32.2-22.7c-10.9-7.4-21.8-14.8-32.9-21.9l-0.2-0.1c-1.2-0.8-1.6-2.3-1-3.6q1.8-3.5 3.4-7 1.6-3.5 3.1-7.1 1.5-3.6 2.9-7.3 1.3-3.6 2.6-7.3 1.2-3.7 2.3-7.5l1.1-3.7 1.1-3.8q1-3.8 1.9-7.7l0.8-3.8 0.8-3.8-0.3 3.9-0.4 3.9q-0.5 3.9-1.1 7.8-0.6 3.9-1.4 7.8-0.8 3.9-1.7 7.8-0.9 3.8-2 7.6-1.1 3.9-2.3 7.7-1.2 3.8-2.5 7.5-1.4 3.7-3 7.4l-1.1-3.7c11.6 6.3 23.2 12.8 34.5 19.7 11.4 6.8 22.7 13.7 33.8 21 11.1 7.3 22.1 14.8 32.7 22.9 5.4 4.1 10.6 8.2 15.7 12.7 5.2 4.5 10.2 9.1 14.9 14.5l1.8 2.2 0.9 1.1 0.8 1 1.4 2 0.2 0.2 0.2 0.4 0.1 0.1 0.4 0.5 0.7 1.1 2.8 4.3 2.6 4.4q1.3 2.2 2.5 4.4l2.5 4.5c1.5 3 3.1 6 4.6 9 6 12 11.3 24.4 16.1 36.8 4.9 12.5 9.2 25.1 13.2 37.9 4 12.7 7.5 25.6 10.7 38.6 3.2 13 5.9 26.1 8.1 39.3 2.2 13.2 3.8 26.5 4.8 39.9l0.3 5.1 0.2 5c0.1 1.7 0.2 3.4 0.2 5.1v5.1c0.1 3.4-0.1 6.8-0.2 10.2 0 1.7-0.2 3.4-0.3 5.1-0.1 1.7-0.2 3.4-0.4 5.1-0.4 3.4-0.7 6.7-1.3 10.3l-0.5 2.6c-0.1 0.9-0.3 1.8-0.5 2.6l-1.1 4.8c-1.7 7.4-4.6 13.6-7.7 19.7-3.1 6.1-6.5 11.9-10.1 17.6q-5.4 8.5-11.1 16.7-5.8 8.2-11.7 16.1-3 4-6.1 8l-6.1 7.8c-8.3 10.3-16.7 20.5-25.4 30.5-8.7 10-17.5 19.8-26.6 29.4z"/>
		</g>
	</g>
	<path id="Layer" class="s0" d="m446.7 60.1c0 0-1.8-1.5-5-4.3-3.3-2.7-8.3-6.6-14.6-11.3-6.5-4.7-14.5-10.1-24.1-15.5-9.5-5.4-20.8-10.8-33.4-14.3-6.3-1.7-12.9-2.8-19.4-2.2-2 0.1-3.4 0.6-5 0.8-0.7 0.1-1.6 0.4-2.4 0.6q-1.3 0.3-2.6 0.7c-1.7 0.5-3.4 1.1-5.1 1.7-1.7 0.6-3.4 1.4-5.2 2-6.8 3-13.7 6.7-20.5 10.9-3.4 2-6.7 4.3-10.1 6.6-3.3 2.4-6.7 4.8-9.9 7.4-13.2 10.2-25.8 22.1-37.2 35.3-1.4 1.7-2.9 3.3-4.2 5.1q-2.1 2.5-4.2 5.1c-2.6 3.5-5.3 6.9-7.8 10.6-2.5 3.6-4.9 7.3-7.2 11-1.2 1.9-2.3 3.8-3.4 5.7l-1.6 2.9-1.6 2.9c-8.3 15.5-14.4 32.1-17.9 48.9-0.6 4.2-1.5 8.4-1.9 12.6l-0.3 3.2c-0.1 1-0.3 2.1-0.3 3.1q-0.1 3.2-0.3 6.3l-0.1 1.6v0.2c0-0.1 0 0.1 0 0.1v1.2q0 1.7 0 3.3 0 1.7 0.1 3.2 0 1.6 0.1 3.1c0 2.1 0.2 4.2 0.3 6.3 0.1 2.1 0.3 4.2 0.4 6.3 1.5 16.5 4.7 32.4 9.3 46.9 0.6 1.9 1.1 3.7 1.7 5.4 0.7 1.8 1.3 3.6 1.9 5.3 0.7 1.8 1.3 3.5 2 5.2q1.1 2.5 2.1 5.1c2.8 6.6 5.9 12.9 9 18.9 6.2 12 12.6 22.7 18.9 31.8 6.2 9 12.1 16.6 17.5 22.5 1.3 1.5 2.5 2.9 3.8 4.2q1.8 1.9 3.5 3.5 1.6 1.7 3 3.1 1.5 1.3 2.6 2.3c3.3 2.9 5 4.4 5 4.4 0 0-1.9-1.3-5.5-3.7q-1.3-0.9-3-2-1.5-1.2-3.4-2.7-1.8-1.4-3.9-3.1c-1.4-1.2-2.8-2.5-4.3-3.8-6.1-5.4-12.9-12.4-20.1-21.2q-1.3-1.6-2.7-3.3c-0.9-1.1-1.8-2.3-2.7-3.5-1.9-2.4-3.7-4.8-5.5-7.4q-1.4-1.9-2.8-3.9-1.4-2.1-2.8-4.1c-1.8-2.8-3.6-5.7-5.5-8.6-3.6-6-7.1-12.3-10.6-19.1-3.3-6.7-6.5-13.9-9.3-21.5-5.6-15.1-9.8-31.8-11.9-49.3-0.2-2.2-0.5-4.4-0.7-6.6-0.2-2.2-0.4-4.4-0.5-6.7q-0.1-1.7-0.2-3.4-0.1-1.8-0.1-3.4-0.1-1.6-0.1-3.3v-0.8l-0.1-0.4v-0.3-0.2l0.1-1.8q0.1-3.4 0.1-6.9c0-1.2 0.1-2.3 0.2-3.5l0.3-3.5c0.3-4.7 1.2-9.3 1.9-14 0.4-2.3 1-4.6 1.5-6.9l0.7-3.4 1-3.5c0.6-2.2 1.2-4.5 1.9-6.8q1.2-3.4 2.3-6.7c3.3-8.9 7.1-17.7 11.6-26l1.7-3.1 1.8-3.1c1.2-2 2.3-4.1 3.6-6.1 2.6-4 5.1-8 7.8-11.8 2.7-3.8 5.6-7.5 8.5-11.2q2.2-2.7 4.4-5.4c1.5-1.8 3.1-3.5 4.6-5.2 1.6-1.7 3.1-3.5 4.7-5.1q2.4-2.5 4.8-5c1.6-1.6 3.3-3.2 4.9-4.8l2.5-2.3 2.5-2.3c6.7-6.1 13.7-11.7 20.8-16.9 3.5-2.6 7.2-5 10.8-7.4 3.7-2.3 7.3-4.6 11-6.7 7.5-4.1 15-7.8 22.8-10.6 1.9-0.7 3.8-1.4 5.8-2 2-0.5 3.9-1.1 5.9-1.6q1.5-0.3 3-0.6c1-0.2 2-0.5 3.1-0.6 2.1-0.2 4.4-0.6 6.1-0.5q1.5-0.1 3.1-0.1 1.5 0.1 3 0.2c2 0.1 3.9 0.6 5.8 0.9 3.8 0.7 7.4 1.7 10.7 2.9 13.6 4.8 24.6 11.5 34 17.9 9.3 6.3 16.8 12.7 22.8 18.1 2.9 2.7 5.6 5.1 7.8 7.4 2.1 2.2 4 4.1 5.5 5.7 2.9 3.2 4.4 4.9 4.4 4.9z"/>
	<g id="Clip-Path" clip-path="url(#cp2)">
		<g id="Layer">
			<path id="Layer" class="s0" d="m180.2 309.8c0 0-7.4 5.5-20.5 15.2-6.5 4.9-14.3 10.9-23.2 17.8-2.2 1.8-4.5 3.5-6.8 5.4-2.4 1.9-4.8 3.9-7.2 5.9q-1.8 1.5-3.6 3.1-1.9 1.6-3.7 3.2c-2.6 2.1-5 4.4-7.6 6.7-5 4.6-10.2 9.5-14.9 15-0.6 0.6-1.2 1.3-1.7 2q-0.9 1.1-1.7 2.1l-0.9 1.1-0.7 1q-0.7 1.1-1.5 2.2l-0.4 0.5v0.2c0-0.2-0.1 0-0.1 0l-0.2 0.4-0.7 1.2q-0.8 1.3-1.5 2.5c-1.1 1.8-1.9 3.4-2.8 5.1q-0.7 1.3-1.4 2.5-0.7 1.3-1.4 2.7c-0.9 1.7-1.8 3.5-2.7 5.3q-1.3 2.7-2.6 5.4c-0.9 1.9-1.7 3.8-2.5 5.6q-0.7 1.4-1.3 2.9-0.6 1.4-1.2 2.8-1.2 2.9-2.5 5.8c-1.6 3.9-3.2 7.8-4.7 11.9-3.1 8-6.1 16.2-8.9 24.6q-1.1 3.1-2.1 6.3-1 3.2-2 6.4c-1.4 4.3-2.7 8.6-4 12.9-2.5 8.7-5 17.4-7.2 26.3-1.2 4.4-2.2 8.9-3.3 13.3-1 4.5-2.1 9-3 13.5-1.9 8.9-3.6 17.9-5 26.9-1.5 9-2.7 18-3.6 26.9-0.4 4.4-0.9 8.9-1.1 13.3-0.3 4.4-0.4 8.8-0.5 13.1-0.1 8.7 0.3 17.2 1.3 25.4 0.2 2.1 0.5 4.1 0.9 6.1q0.3 1.5 0.6 3l0.1 0.7 0.1 0.4c0 0.1-0.1-0.3-0.1-0.1l0.1 0.2 0.4 1.6 0.4 1.5 0.2 0.8 0.3 0.7q0.4 1.3 0.8 2.6l0.3 0.6 0.2 0.7 0.6 1.4c0.3 0.9 0.7 1.9 1.1 2.8 3.1 7.3 6.9 14.4 10.7 21.3 3.8 6.8 7.8 13.4 11.8 19.7 3.9 6.3 7.9 12.3 11.7 18.1 7.7 11.5 14.9 22 21.4 31.2 6.6 9.2 12.3 17.3 17.1 23.9 9.6 13.1 15.1 20.6 15.1 20.6 0 0-1.7-1.7-4.7-4.8-2.9-3.2-7.4-7.8-12.8-13.9-5.5-6.1-12.1-13.4-19.4-22.1q-5.5-6.5-11.6-13.9-6-7.4-12.4-15.8c-8.6-11.1-17.6-23.3-26.3-37-4.3-6.9-8.5-14.2-12.3-22.1-0.5-1-1-2-1.4-3l-0.7-1.5-0.3-0.8-0.3-0.8q-0.7-1.7-1.3-3.4l-0.3-0.9-0.3-0.7-0.4-1.6-0.5-1.5-0.1-0.2c0.1 0.2-0.1-0.4-0.1-0.4l-0.1-0.5-0.2-0.8q-0.3-1.7-0.7-3.3c-0.6-2.3-0.9-4.5-1.3-6.8-2.9-18.1-2.6-36.6-1.1-55.2 0.9-9.3 2-18.6 3.4-27.9 1.5-9.3 3.1-18.6 5.1-27.8 3.9-18.4 8.8-36.5 14.3-54.2 2.8-8.8 5.7-17.5 8.8-26 1.5-4.3 3.2-8.5 4.8-12.7 1.6-4.1 3.3-8.2 5-12.3 3.5-8.1 7.1-16 10.9-23.6 3.8-7.7 7.8-15 12.1-22 1.1-1.8 2.2-3.6 3.3-5.2q0.8-1.2 1.6-2.4l0.8-1.3 0.2-0.3 0.2-0.2 0.1-0.2 0.5-0.6c2.5-3.5 5.2-6.5 8-9.3q2.1-2 4.1-4 2.1-1.9 4.2-3.8c1.4-1.3 2.8-2.4 4.2-3.6 1.4-1.1 2.8-2.3 4.2-3.4 11.1-8.7 21.7-16 31.2-22.2 9.5-6.3 18-11.4 25-15.6 7-4.1 12.6-7.2 16.4-9.4 3.8-2.1 5.8-3.2 5.8-3.2z"/>
		</g>
	</g>
	<path id="Layer" class="s0" d="m336 369.1c0 0-7.3-4.5-20.1-12.4q-4.7-3-10.5-6.4-1.5-0.9-3-1.8l-0.8-0.4-0.8-0.5q-0.8-0.5-1.5-1-1.6-1-3.2-2c-1.1-0.6-2.1-1.5-3.2-2.3-1.1-0.8-2.2-1.7-3.3-2.5q-1.5-1.4-3.2-2.8c-2.2-1.8-4.1-4-6.3-6.1-1.1-1-2-2.2-3-3.4-1-1.2-2-2.4-3-3.6q-1.4-1.9-2.8-3.9-0.8-1-1.5-2-0.6-1-1.3-2-1.3-2.1-2.7-4.3-1.2-2.2-2.5-4.4-0.6-1.2-1.2-2.3-0.6-1.2-1.2-2.4-1.1-2.3-2.2-4.8-1-2.4-2.1-5-0.5-1.2-1-2.5-0.4-1.3-0.8-2.6c-0.6-1.8-1.2-3.5-1.8-5.3q-0.7-2.7-1.5-5.5c-0.2-0.9-0.5-1.8-0.7-2.7q-0.3-1.4-0.6-2.8c-0.3-1.9-0.8-3.8-1.1-5.7-0.6-3.9-1.3-7.8-1.6-11.7-0.2-2-0.5-4-0.5-6q-0.1-3-0.3-6.1v-0.8-0.8-1.5q0-1.5 0-3c0-1 0.1-2.1 0.2-3.1q0.1-1.6 0.2-3.2c0-1.1 0.2-2.2 0.3-3.2 0.1-1.1 0.2-2.2 0.4-3.2 0.4-2.2 0.8-4.4 1.4-6.5 1.2-4.4 3-8.9 6-12.9 0.7-1 1.6-2 2.4-2.9 0.9-0.9 1.9-1.8 2.9-2.6 1-0.7 2.1-1.5 3.2-2.2 1.1-0.6 2.2-1.2 3.4-1.7 4.6-1.9 9.4-2.7 14-3 4.7-0.3 9.1-0.1 13.5 0.2 4.4 0.4 8.7 0.9 13 1.5 8.5 1.1 16.9 2.3 25.3 3.1 4.2 0.4 8.4 0.8 12.5 1 2.1 0.1 4.1 0.1 6.2 0.1l0.8 0.1c0 0 0.2 0 0.1 0h0.2 0.4l1.6-0.1h3.2c4-0.2 8.2-0.4 12.3-0.8 4.2-0.3 8.3-0.8 12.5-1.3 8.2-1 16.6-2.3 25-3 4.3-0.4 8.5-0.7 12.9-0.6 4.4 0.1 8.9 0.5 13.3 1.8 4.5 1.3 8.9 3.6 12.4 7 3.5 3.3 5.8 7.4 7.4 11.4 0.4 1.1 0.8 2.1 1.1 3.1q0.4 1.5 0.8 3c0.3 1.1 0.5 2.1 0.7 3.1q0.2 1.5 0.5 3c0.2 2 0.5 3.9 0.6 5.9 0.1 1.9 0.3 3.9 0.3 5.8q0 2.9 0 5.7-0.1 2.7-0.3 5.4 0 1.4-0.1 2.7-0.1 1.4-0.2 2.8-0.3 2.7-0.6 5.4c-0.2 1.7-0.6 3.5-0.8 5.2-0.3 1.7-0.5 3.4-1 5.1-0.7 3.3-1.3 6.6-2.3 9.8q-0.7 2.4-1.3 4.7-0.8 2.3-1.5 4.5c-1 3-2.2 5.8-3.4 8.6-0.3 0.7-0.5 1.4-0.8 2.1q-0.5 1-1 1.9-0.9 2-1.9 3.9c-0.5 1.3-1.3 2.5-2 3.7q-1 1.8-1.9 3.5c-5.5 9.2-11.5 16.3-17 21.6q-1 1-1.9 2-1.1 0.8-2 1.7c-1.3 1-2.5 2.1-3.6 3-2.4 1.7-4.4 3.3-6.1 4.3-3.5 2.1-5.3 3.2-5.3 3.2 0 0 1.7-1.3 4.9-3.7 1.6-1.2 3.4-2.9 5.6-4.8 1-1 2.1-2.2 3.2-3.4q0.9-0.9 1.8-1.8 0.9-1 1.8-2.1c4.8-5.5 10.1-12.9 14.7-22.1 4.7-9.1 8.7-20.1 11.3-32.4 0.8-3 1.2-6.2 1.8-9.4 0.3-1.6 0.4-3.3 0.6-4.9 0.2-1.7 0.4-3.3 0.5-5q0.1-2.5 0.3-5.1 0.1-1.2 0.1-2.5 0-1.3 0.1-2.7 0-2.7 0-5.4-0.1-2.6-0.2-5.2c-0.1-1.8-0.3-3.5-0.5-5.3-0.2-1.8-0.5-3.5-0.7-5.3q-0.3-1.3-0.6-2.6c-0.2-0.8-0.4-1.7-0.6-2.5q-0.4-1.3-0.8-2.5c-0.3-0.8-0.6-1.6-1-2.4-1.3-3.1-3.1-5.8-5.4-7.9-2.3-2.1-5.1-3.5-8.4-4.3-6.6-1.7-14.5-1.3-22.4-0.4-8 0.9-16.3 2.2-24.7 3.4-4.3 0.5-8.5 1.1-12.8 1.5-4.4 0.5-8.7 0.7-13.2 0.9l-3.2 0.1h-1.6-0.4-0.5-0.9c-2.2-0.1-4.4-0.1-6.6-0.2-4.4-0.1-8.8-0.5-13.1-0.9-8.7-0.9-17.3-2.2-25.7-3.3-4.2-0.6-8.3-1.1-12.4-1.5-4.1-0.4-8.1-0.6-11.9-0.4-3.8 0.2-7.4 0.8-10.5 2.1q-4.7 1.8-7.6 5.7c-2 2.5-3.4 5.8-4.5 9.3-0.5 1.7-0.9 3.6-1.3 5.4-0.2 0.9-0.3 1.9-0.4 2.8-0.1 0.9-0.3 1.9-0.4 2.8q-0.1 1.4-0.2 2.8c-0.1 0.9-0.2 1.8-0.2 2.8q-0.1 1.5-0.1 3l-0.1 1.5v0.4 0.2c0 0 0-0.1 0 0v0.7c0.1 3.9 0 7.7 0.3 11.4 0.2 3.8 0.7 7.4 1.1 11.1 0.2 1.8 0.6 3.6 0.9 5.4q0.2 1.3 0.4 2.6c0.2 0.9 0.4 1.8 0.6 2.7q0.6 2.6 1.2 5.2 0.7 2.5 1.4 5 0.4 1.3 0.8 2.5 0.4 1.2 0.8 2.4 0.9 2.5 1.7 4.9 1 2.3 1.9 4.6 0.5 1.1 0.9 2.3 0.6 1.1 1.1 2.2 1.1 2.2 2.1 4.3 1.2 2.1 2.3 4.1 0.6 1.1 1.2 2.1 0.6 0.9 1.2 1.9 1.3 1.9 2.5 3.8c0.9 1.2 1.8 2.4 2.7 3.6 0.9 1.1 1.7 2.3 2.6 3.4 1.9 2.1 3.7 4.3 5.6 6.2q1.5 1.4 2.8 2.8 1.5 1.3 2.9 2.5c1 0.8 1.9 1.7 2.9 2.4q1.5 1.2 3 2.2 0.8 0.6 1.5 1.1l0.7 0.5 0.7 0.5q1.5 1 2.8 2c3.7 2.6 7.1 5.1 10.1 7.3 6.1 4.5 10.7 8.1 13.9 10.6 3.2 2.4 4.9 3.7 4.9 3.7z"/>
	<path id="Layer" class="s0" d="m270.8 177.9c-0.1 0 0.5-0.4 1.6-1 1.2-0.6 3-1.6 5.3-2.3 2.4-0.8 5.4-1.5 8.8-1.8 3.5-0.4 7.4-0.5 11.6-0.4 4.3 0.1 8.8 0.4 13.6 0.8 4.8 0.5 9.8 1 14.9 1.5 5.1 0.5 10.4 1 15.8 1.3 5.3 0.3 10.7 0.5 16.2 0.4 5.4 0 10.8-0.4 16.1-0.8 5.4-0.5 10.7-1 15.8-1.5 5.2-0.6 10.2-1.1 15-1.5 4.8-0.4 9.4-0.6 13.7-0.5q3.2 0 6.1 0.2c1.9 0.3 3.8 0.5 5.5 0.9 3.4 0.6 6.3 1.7 8.6 2.8 2.2 1.1 3.8 2.4 4.8 3.2 0.9 0.9 1.4 1.4 1.4 1.4 0 0-0.6-0.3-1.7-1-1.1-0.6-2.8-1.4-5.1-2-2.3-0.7-5.1-1.1-8.4-1.3-3.3-0.1-7 0.1-11 0.5-4.1 0.5-8.5 1.2-13.1 2-4.7 0.8-9.7 1.7-14.8 2.5-5.1 0.9-10.5 1.7-16 2.3-5.5 0.6-11.2 1-16.9 1.1-5.6 0-11.3-0.2-16.8-0.7-5.6-0.5-11-1.2-16.1-2-5.2-0.8-10.2-1.8-14.8-2.6-4.7-0.8-9.1-1.7-13.2-2.3-4-0.5-7.8-1-11.1-1.2-3.3-0.1-6.1 0-8.5 0.3-2.4 0.3-4.2 0.7-5.4 1.1-1.3 0.4-2 0.6-2 0.6z"/>
	<path id="Layer" class="s0" d="m297.5 317.6c0 0-1.8-2.5-5.1-6.9-1.6-2.2-3.6-4.9-5.8-8-2.2-3.1-4.6-6.7-7-10.8-2.5-4-4.9-8.6-7-13.8q-0.7-1.9-1.4-3.9c-0.4-1.4-0.9-2.8-1.2-4.2q-0.3-1.1-0.5-2.2l-0.1-0.6-0.1-0.1v-0.2l-0.1-0.3-0.1-1q-0.4-2.1-0.8-4.3-0.3-2.3-0.6-4.6c-0.1-1.5-0.2-3.1-0.3-4.6-0.1-1.6 0-3.2-0.1-4.8q0.1-1.2 0.2-2.4c0.1-0.9 0.1-1.7 0.2-2.5l0.4-2.5c0.1-0.8 0.4-1.6 0.6-2.5l0.3-1.2q0.2-0.7 0.5-1.3c0.3-0.8 0.5-1.6 1-2.5 1.5-3.2 3.9-6.3 6.9-8.5 2.9-2.2 6.3-3.6 9.5-4.5 3.3-0.9 6.6-1.3 9.8-1.6 1.6-0.2 3.1-0.3 4.7-0.4 1.5 0 3.1-0.1 4.6-0.1q4.6 0 9 0.1c5.8 0 11.4 0.1 16.7 0 2.6 0 5.2-0.2 7.7-0.3q1.8-0.1 3.6-0.3 1.8-0.1 3.5-0.3c4.6-0.6 8.7-1.2 12.5-2 3.7-0.7 6.9-1.4 9.5-2 5.4-1.3 8.4-2 8.4-2 0 0-0.7 0.3-2.1 0.9-1.3 0.6-3.3 1.5-5.8 2.5-2.6 1-5.7 2.2-9.3 3.3q-2.8 0.9-5.9 1.8-3.1 0.9-6.6 1.6c-4.7 1-9.8 1.7-15.2 2.2-5.4 0.5-11.1 0.8-16.9 1-5.9 0.2-11.9 0.3-17.7 1-2.9 0.3-5.8 0.8-8.5 1.6-2.7 0.7-5.2 1.8-7.2 3.3-2 1.5-3.6 3.5-4.8 5.9-1 2.3-1.8 5-2.2 7.8-0.8 5.5-0.5 11.5 0 17q0.2 2.2 0.5 4.3l0.1 1 0.1 0.3v0.1c0-0.1 0 0 0 0v0.1l0.1 0.5q0.1 1 0.3 2c0.2 1.3 0.6 2.6 0.8 3.9q0.6 1.9 1.1 3.7c1.6 4.9 3.6 9.5 5.5 13.7 2 4.1 4 7.9 5.8 11.3 1.8 3.3 3.4 6.2 4.7 8.6 1.3 2.4 2.2 4.4 2.9 5.7 0.6 1.3 0.9 2 0.9 2z"/>
	<path id="Layer" class="s0" d="m568.9 766.5c0 0-0.2-3.8-0.5-10.8-0.2-7-0.7-17.3-1.1-30.4-0.4-13.1-0.9-28.9-1.4-47.2-0.2-9.1-0.5-18.8-0.8-29q-0.3-15.4-0.7-32.2-0.3-16.8-0.7-35c-0.3-12.1-0.4-24.6-0.6-37.5q-0.2-9.6-0.3-19.5-0.1-2.5-0.1-4.9v-2.5-1.3c-0.1-0.4 0 0.2-0.1 0v-0.3-0.6-0.6c-0.1-0.2-0.1-0.5-0.1-0.6q-0.1-0.3-0.2-0.6v-0.4l-0.1-0.4-0.3-0.8q-0.2-0.9-0.6-1.7c-0.3-0.5-0.5-1-0.8-1.5l-0.5-0.8-0.6-0.6c-0.3-0.5-0.8-0.9-1.1-1.4-0.9-0.7-1.8-1.5-2.8-2.1-1-0.6-2.1-1-3.2-1.4-1.2-0.2-2.3-0.5-3.5-0.5-0.3 0-0.5 0-0.9 0h-1.3-2.6q-2.6 0-5.2 0.1-5.2 0-10.5 0.1-21 0.2-42.7 0.4-21.7 0.1-43.8 0.2c-29.4 0.2-59.3 0.2-89.2 0.3-29.9-0.1-59.9-0.1-89.3-0.2q-22.1-0.2-43.8-0.3-21.6-0.2-42.7-0.4-5.2 0-10.4-0.1-2.6 0-5.2-0.1h-2.6-1.3c-0.4 0 0.2 0 0 0h-0.3-0.7l-0.6 0.1h-0.3c-0.1 0-0.2 0-0.2 0q-0.4 0.1-0.7 0.1c-0.2 0-0.5 0.1-0.8 0.2l-0.8 0.2c-1.1 0.3-2.2 0.7-3.2 1.4-1 0.5-1.9 1.3-2.8 2.1-0.4 0.4-0.9 0.8-1.2 1.3l-0.5 0.7-0.5 0.7c-1.3 2-2 4.2-2.1 6.6 0 0.3-0.1 0.5-0.1 0.9v1.3l-0.1 2.5q0 2.4 0 4.9-0.2 9.9-0.3 19.5c-0.2 12.9-0.4 25.4-0.6 37.5q-0.4 18.2-0.8 35-0.3 16.8-0.7 32.2c-0.2 10.2-0.5 19.9-0.7 29-0.5 18.3-1.1 34.1-1.5 47.2-0.4 13.1-0.8 23.4-1.1 30.4-0.3 7-0.4 10.8-0.4 10.8 0 0-0.2-3.8-0.5-10.8-0.2-7-0.7-17.3-1.1-30.4-0.4-13.1-1-28.9-1.4-47.2-0.2-9.1-0.5-18.8-0.8-29q-0.3-15.4-0.7-32.2-0.3-16.8-0.7-35c-0.2-12.1-0.4-24.6-0.6-37.5q-0.2-9.6-0.3-19.5-0.1-2.5-0.1-4.9v-2.5l-0.1-1.3c0-0.4 0.1-1 0.1-1.5 0.1-4.4 1.3-8.7 3.6-12.5 4.3-7.7 12.8-13.2 21.9-13.6h0.7l0.3-0.1h0.7 1.3 2.6q2.6-0.1 5.2-0.1 5.2 0 10.4-0.1 21.1-0.2 42.7-0.4 21.7-0.1 43.8-0.2c29.4-0.2 59.4-0.2 89.3-0.3 29.9 0.1 59.8 0.1 89.2 0.3q22.1 0.1 43.8 0.2 21.7 0.2 42.7 0.4 5.3 0.1 10.5 0.1 2.6 0.1 5.2 0.1h2.6 1.3c0.4 0.1 1.1 0.1 1.6 0.1 2.3 0.1 4.5 0.6 6.7 1.2 2.1 0.8 4.2 1.7 6.1 2.9 1.9 1.2 3.6 2.6 5.2 4.2 0.7 0.8 1.5 1.6 2.1 2.5l1 1.4 0.8 1.4c0.6 0.9 1 1.9 1.5 2.9q0.6 1.6 1.1 3.1l0.4 1.6 0.2 0.8 0.1 0.9 0.3 1.8c0 0.4 0 0.5 0 0.7l0.1 1.3v0.3c0 0 0 0.8 0 0.6v1.3l-0.1 2.5q0 2.4-0.1 4.9-0.1 9.9-0.3 19.5c-0.2 12.9-0.3 25.4-0.6 37.5q-0.3 18.2-0.7 35-0.4 16.8-0.7 32.2c-0.3 10.2-0.5 19.9-0.8 29-0.4 18.3-1 34.1-1.4 47.2-0.4 13.1-0.8 23.4-1.1 30.4-0.3 7-0.4 10.8-0.4 10.8z"/>
	<path id="Layer" fill-rule="evenodd" class="s0" d="m352.6 733.5c-10.6 0-19.2-8.6-19.2-19.2v-41c-12-7.3-18.9-20.6-17.8-34.7 1.4-18.1 16.2-32.7 34.3-34 10.4-0.8 20.3 2.7 27.9 9.8 7.5 7 11.8 16.9 11.8 27.2 0 13-6.8 25-17.9 31.7v41c0 10.6-8.6 19.2-19.1 19.2zm-28.7-94.3c-0.9 11.7 5.2 22.6 15.5 27.9l2.3 1.2v46c0 6 4.9 10.9 10.9 10.9 6 0 10.8-4.9 10.8-10.9v-46l2.3-1.2c9.6-4.9 15.6-14.7 15.6-25.5 0-8-3.3-15.7-9.1-21.1-5.9-5.5-13.6-8.2-21.7-7.6-14.1 1-25.5 12.3-26.6 26.3z"/>
</svg>